<svg width="47" height="47" viewBox="0 0 47 47" fill="none" xmlns="http://www.w3.org/2000/svg">
<path fill-rule="evenodd" clip-rule="evenodd" d="M14.5007 29.2557C14.7593 30.0245 14.3456 30.8574 13.5767 31.116C11.0871 31.9532 9.76399 34.0431 9.05626 36.1684C8.77523 37.0124 8.60544 37.8248 8.50342 38.4966C9.17519 38.3945 9.98763 38.2248 10.8316 37.9437C12.9568 37.236 15.0468 35.9129 15.884 33.4232C16.1426 32.6544 16.9755 32.2407 17.7443 32.4993C18.5132 32.7578 18.9269 33.5907 18.6683 34.3596C17.4126 38.0937 14.3068 39.8825 11.7597 40.7308C10.4729 41.1593 9.26828 41.3708 8.38903 41.4763C7.94728 41.5293 7.58207 41.5561 7.32261 41.5698C7.19274 41.5766 7.08896 41.5802 7.01487 41.582C6.97782 41.5829 6.94815 41.5834 6.92633 41.5837L6.89951 41.5839L6.89061 41.584L6.8873 41.584L6.88594 41.584C6.88534 41.584 6.88477 41.584 6.88477 40.1152C5.41602 40.1152 5.41602 40.1147 5.41602 40.1141L5.41602 40.1127L5.41602 40.1094L5.41607 40.1005L5.41631 40.0737C5.41658 40.0518 5.41707 40.0222 5.41799 39.9851C5.41982 39.911 5.42337 39.8072 5.4302 39.6774C5.44385 39.4179 5.47073 39.0527 5.52372 38.611C5.62919 37.7317 5.84073 36.5271 6.26923 35.2403C7.11745 32.6932 8.90625 29.5874 12.6404 28.3317C13.4093 28.0731 14.2422 28.4868 14.5007 29.2557ZM6.88477 40.1152H5.41602C5.41602 40.9264 6.0736 41.584 6.88477 41.584V40.1152Z" fill="white"/>
<path fill-rule="evenodd" clip-rule="evenodd" d="M38.8836 8.1164C37.1788 7.87052 32.9825 7.7779 28.6878 12.0726L17.2604 23.5L23.5 29.7397L34.9275 18.3122C39.2221 14.0176 39.1295 9.82121 38.8836 8.1164ZM39.3095 5.20993C36.965 4.87048 31.7386 4.86754 26.6107 9.99543L14.1447 22.4614C13.8692 22.7369 13.7145 23.1105 13.7145 23.5C13.7145 23.8895 13.8692 24.2631 14.1447 24.5386L22.4615 32.8554C23.035 33.4289 23.965 33.4289 24.5386 32.8554L37.0046 20.3894C42.1325 15.2615 42.1295 10.0351 41.7901 7.69048C41.7042 7.06298 41.4153 6.48073 40.9673 6.03275C40.5193 5.58478 39.9371 5.29584 39.3095 5.20993Z" fill="white"/>
<path fill-rule="evenodd" clip-rule="evenodd" d="M33.8914 19.9566C34.7026 19.9566 35.3602 20.6142 35.3602 21.4254V33.2855L35.36 33.3065C35.3491 34.0779 35.035 34.814 34.486 35.3557L28.5587 41.3013C28.1824 41.6771 27.7112 41.9437 27.1952 42.0727C26.6793 42.2017 26.138 42.1882 25.6291 42.0337C25.1203 41.8791 24.6629 41.5893 24.3058 41.1952C23.949 40.8014 23.7058 40.3182 23.6019 39.797C23.6018 39.7966 23.602 39.7974 23.6019 39.797L22.0599 32.1055C21.9005 31.3102 22.416 30.5361 23.2113 30.3767C24.0067 30.2172 24.7807 30.7327 24.9401 31.5281L26.4828 39.2229L32.4227 33.2646V21.4254C32.4227 20.6142 33.0803 19.9566 33.8914 19.9566Z" fill="white"/>
<path fill-rule="evenodd" clip-rule="evenodd" d="M13.6936 11.64L13.7145 11.6398H25.5747C26.3858 11.6398 27.0434 12.2974 27.0434 13.1086C27.0434 13.9198 26.3858 14.5773 25.5747 14.5773H13.7353L13.7234 14.5894L13.7233 14.5894L7.7771 20.5173L7.77938 20.5177L15.472 22.0599C16.2673 22.2193 16.7828 22.9934 16.6233 23.7887C16.4639 24.584 15.6899 25.0995 14.8945 24.9401L7.20425 23.3984C7.20381 23.3983 7.20337 23.3982 7.20293 23.3981C6.68182 23.2942 6.19863 23.051 5.80484 22.6942C5.41071 22.3371 5.12091 21.8798 4.96637 21.3709C4.81182 20.862 4.79832 20.3207 4.92731 19.8048C5.0563 19.2888 5.32294 18.8176 5.69878 18.4413L5.70098 18.4391L5.70098 18.4391L11.6444 12.5141C12.1861 11.965 12.9221 11.651 13.6936 11.64Z" fill="white"/>
</svg>
