<svg width="63" height="63" viewBox="0 0 63 63" fill="none" xmlns="http://www.w3.org/2000/svg">
<path d="M18.9002 17.325C18.4825 17.325 18.0819 17.4909 17.7865 17.7863C17.4911 18.0816 17.3252 18.4822 17.3252 18.9C17.3252 26.0011 20.1461 32.8115 25.1674 37.8327C30.1887 42.854 36.999 45.675 44.1002 45.675C44.5179 45.675 44.9185 45.509 45.2139 45.2136C45.5093 44.9183 45.6752 44.5177 45.6752 44.1V38.5875C45.6752 38.1697 45.5093 37.7691 45.2139 37.4738C44.9185 37.1784 44.5179 37.0125 44.1002 37.0125C42.1314 37.0125 40.2414 36.6975 38.4774 36.1147C37.9262 35.9415 37.3119 36.0675 36.8709 36.4927L33.4059 39.9577C28.9487 37.6897 25.2947 34.0515 23.0267 29.5785L26.4917 26.0977C26.9327 25.6882 27.0587 25.074 26.8854 24.5227C26.3027 22.7587 25.9877 20.8687 25.9877 18.9C25.9877 18.4822 25.8218 18.0816 25.5264 17.7863C25.231 17.4909 24.8304 17.325 24.4127 17.325H18.9002ZM36.2252 17.325V19.6875H41.7377L33.0752 28.35L34.6502 29.925L43.3127 21.2625V26.775H45.6752V17.325H36.2252Z" fill="#011136"/>
</svg>
