<svg width="47" height="47" viewBox="0 0 47 47" fill="none" xmlns="http://www.w3.org/2000/svg">
<path fill-rule="evenodd" clip-rule="evenodd" d="M1.46875 14.6875C1.46875 13.8763 2.12633 13.2188 2.9375 13.2188H19.0938C19.9049 13.2188 20.5625 13.8763 20.5625 14.6875C20.5625 15.4987 19.9049 16.1562 19.0938 16.1562H2.9375C2.12633 16.1562 1.46875 15.4987 1.46875 14.6875Z" fill="white"/>
<path fill-rule="evenodd" clip-rule="evenodd" d="M26.4375 14.6875C26.4375 13.8763 27.0951 13.2188 27.9062 13.2188H44.0625C44.8737 13.2188 45.5312 13.8763 45.5312 14.6875C45.5312 15.4987 44.8737 16.1562 44.0625 16.1562H27.9062C27.0951 16.1562 26.4375 15.4987 26.4375 14.6875Z" fill="white"/>
<path fill-rule="evenodd" clip-rule="evenodd" d="M23.5 11.75C21.8777 11.75 20.5625 13.0652 20.5625 14.6875C20.5625 16.3098 21.8777 17.625 23.5 17.625C25.1223 17.625 26.4375 16.3098 26.4375 14.6875C26.4375 13.0652 25.1223 11.75 23.5 11.75ZM17.625 14.6875C17.625 11.4428 20.2553 8.8125 23.5 8.8125C26.7447 8.8125 29.375 11.4428 29.375 14.6875C29.375 17.9322 26.7447 20.5625 23.5 20.5625C20.2553 20.5625 17.625 17.9322 17.625 14.6875Z" fill="white"/>
<path fill-rule="evenodd" clip-rule="evenodd" d="M7.34375 29.375C5.72141 29.375 4.40625 30.6902 4.40625 32.3125C4.40625 33.9348 5.72141 35.25 7.34375 35.25C8.96609 35.25 10.2812 33.9348 10.2812 32.3125C10.2812 30.6902 8.96609 29.375 7.34375 29.375ZM1.46875 32.3125C1.46875 29.0678 4.09908 26.4375 7.34375 26.4375C10.5884 26.4375 13.2188 29.0678 13.2188 32.3125C13.2188 35.5572 10.5884 38.1875 7.34375 38.1875C4.09908 38.1875 1.46875 35.5572 1.46875 32.3125Z" fill="white"/>
<path fill-rule="evenodd" clip-rule="evenodd" d="M39.6562 29.375C38.0339 29.375 36.7188 30.6902 36.7188 32.3125C36.7188 33.9348 38.0339 35.25 39.6562 35.25C41.2786 35.25 42.5938 33.9348 42.5938 32.3125C42.5938 30.6902 41.2786 29.375 39.6562 29.375ZM33.7812 32.3125C33.7812 29.0678 36.4116 26.4375 39.6562 26.4375C42.9009 26.4375 45.5312 29.0678 45.5312 32.3125C45.5312 35.5572 42.9009 38.1875 39.6562 38.1875C36.4116 38.1875 33.7812 35.5572 33.7812 32.3125Z" fill="white"/>
<path fill-rule="evenodd" clip-rule="evenodd" d="M26.4554 14.8964C26.6747 14.1154 27.4855 13.66 28.2665 13.8793C31.4383 14.7697 34.2973 16.5304 36.5201 18.9619C38.7428 21.3934 40.2403 24.3987 40.8432 27.6375C40.9916 28.4349 40.4654 29.2018 39.668 29.3502C38.8705 29.4986 38.1037 28.9725 37.9553 28.175C37.4528 25.4755 36.2046 22.9705 34.3519 20.9438C32.4993 18.9171 30.1162 17.4496 27.4725 16.7074C26.6916 16.4882 26.2362 15.6773 26.4554 14.8964Z" fill="white"/>
<path fill-rule="evenodd" clip-rule="evenodd" d="M20.5445 14.8964C20.7637 15.6773 20.3084 16.4882 19.5274 16.7074C16.8837 17.4496 14.5006 18.9171 12.648 20.9438C10.7953 22.9705 9.54713 25.4755 9.04468 28.175C8.89625 28.9725 8.12944 29.4986 7.33197 29.3502C6.5345 29.2018 6.00834 28.4349 6.15677 27.6375C6.75959 24.3987 8.25714 21.3934 10.4799 18.9619C12.7026 16.5304 15.5617 14.7697 18.7334 13.8793C19.5144 13.66 20.3252 14.1154 20.5445 14.8964Z" fill="white"/>
</svg>
